<mxfile host="app.diagrams.net" modified="2024-06-12T20:38:44.422Z" agent="Mozilla/5.0 (Windows NT 10.0; Win64; x64) AppleWebKit/537.36 (KHTML, like Gecko) Chrome/125.0.0.0 Safari/537.36" etag="jJ_7M28OIcM1CtHQmQbH" version="24.5.4" type="device">
  <diagram name="PÃ¡gina-1" id="fg697A6MTHWbqzjaUPer">
    <mxGraphModel dx="1687" dy="918" grid="1" gridSize="10" guides="1" tooltips="1" connect="1" arrows="1" fold="1" page="1" pageScale="1" pageWidth="827" pageHeight="1169" math="0" shadow="0">
      <root>
        <mxCell id="0" />
        <mxCell id="1" parent="0" />
        <mxCell id="55MPb7F4AEdg9HZ-oGf9-1" value="Entrenador" style="swimlane;fontStyle=1;align=center;verticalAlign=top;childLayout=stackLayout;horizontal=1;startSize=26;horizontalStack=0;resizeParent=1;resizeParentMax=0;resizeLast=0;collapsible=1;marginBottom=0;whiteSpace=wrap;html=1;" vertex="1" parent="1">
          <mxGeometry x="330" y="350" width="320" height="310" as="geometry" />
        </mxCell>
        <mxCell id="55MPb7F4AEdg9HZ-oGf9-2" value="- id: int {readonly, autoincrement}&lt;div&gt;- nombre: str {unique}&lt;/div&gt;&lt;div&gt;- equipo: list&lt;/div&gt;&lt;div&gt;- objetos: list&lt;/div&gt;&lt;div&gt;- medallas: set&lt;/div&gt;&lt;div&gt;- default_pokemon: Pokemon&lt;/div&gt;&lt;div&gt;- pokedex: Pokedex&lt;br&gt;&lt;div&gt;&lt;u&gt;- id_autoincrement&lt;/u&gt;&lt;/div&gt;&lt;/div&gt;&lt;div&gt;&lt;u&gt;- lista_nombres&lt;/u&gt;&lt;/div&gt;&lt;div&gt;&lt;u&gt;&lt;br&gt;&lt;/u&gt;&lt;/div&gt;" style="text;strokeColor=none;fillColor=none;align=left;verticalAlign=top;spacingLeft=4;spacingRight=4;overflow=hidden;rotatable=0;points=[[0,0.5],[1,0.5]];portConstraint=eastwest;whiteSpace=wrap;html=1;" vertex="1" parent="55MPb7F4AEdg9HZ-oGf9-1">
          <mxGeometry y="26" width="320" height="154" as="geometry" />
        </mxCell>
        <mxCell id="55MPb7F4AEdg9HZ-oGf9-3" value="" style="line;strokeWidth=1;fillColor=none;align=left;verticalAlign=middle;spacingTop=-1;spacingLeft=3;spacingRight=3;rotatable=0;labelPosition=right;points=[];portConstraint=eastwest;strokeColor=inherit;" vertex="1" parent="55MPb7F4AEdg9HZ-oGf9-1">
          <mxGeometry y="180" width="320" height="8" as="geometry" />
        </mxCell>
        <mxCell id="55MPb7F4AEdg9HZ-oGf9-4" value="+ agregarPokemon(pokemon: Pokemon)&lt;div&gt;+ capturarPokemon(pokemon: Pokemon)&lt;br&gt;&lt;div&gt;+ elegirPokemon(index:int)&lt;/div&gt;&lt;div&gt;+ removerPokemon(pokemon: Pokemon)&lt;/div&gt;&lt;div&gt;+ usarObjeto(objeto: Objeto, pokemon: Pokemon)&lt;/div&gt;&lt;div&gt;&lt;u&gt;+ validarNombre()&lt;/u&gt;&lt;/div&gt;&lt;div&gt;&lt;u&gt;+ incrementarId()&lt;/u&gt;&lt;/div&gt;&lt;/div&gt;" style="text;strokeColor=none;fillColor=none;align=left;verticalAlign=top;spacingLeft=4;spacingRight=4;overflow=hidden;rotatable=0;points=[[0,0.5],[1,0.5]];portConstraint=eastwest;whiteSpace=wrap;html=1;" vertex="1" parent="55MPb7F4AEdg9HZ-oGf9-1">
          <mxGeometry y="188" width="320" height="122" as="geometry" />
        </mxCell>
        <mxCell id="55MPb7F4AEdg9HZ-oGf9-5" value="Pokemon" style="swimlane;fontStyle=1;align=center;verticalAlign=top;childLayout=stackLayout;horizontal=1;startSize=26;horizontalStack=0;resizeParent=1;resizeParentMax=0;resizeLast=0;collapsible=1;marginBottom=0;whiteSpace=wrap;html=1;" vertex="1" parent="1">
          <mxGeometry x="840" y="340" width="250" height="268" as="geometry" />
        </mxCell>
        <mxCell id="55MPb7F4AEdg9HZ-oGf9-6" value="- nombre: str&lt;div&gt;- nivel: int&lt;/div&gt;&lt;div&gt;- tipo: str&lt;/div&gt;&lt;div&gt;- / salud: int&lt;/div&gt;&lt;div&gt;- / ataque_base: int&lt;/div&gt;&lt;div&gt;- ataque_con_habilidad: int&lt;/div&gt;&lt;div&gt;- defensa: int&lt;/div&gt;&lt;div&gt;- habilidades: list&lt;/div&gt;&lt;div&gt;&lt;br&gt;&lt;/div&gt;" style="text;strokeColor=none;fillColor=none;align=left;verticalAlign=top;spacingLeft=4;spacingRight=4;overflow=hidden;rotatable=0;points=[[0,0.5],[1,0.5]];portConstraint=eastwest;whiteSpace=wrap;html=1;" vertex="1" parent="55MPb7F4AEdg9HZ-oGf9-5">
          <mxGeometry y="26" width="250" height="154" as="geometry" />
        </mxCell>
        <mxCell id="55MPb7F4AEdg9HZ-oGf9-7" value="" style="line;strokeWidth=1;fillColor=none;align=left;verticalAlign=middle;spacingTop=-1;spacingLeft=3;spacingRight=3;rotatable=0;labelPosition=right;points=[];portConstraint=eastwest;strokeColor=inherit;" vertex="1" parent="55MPb7F4AEdg9HZ-oGf9-5">
          <mxGeometry y="180" width="250" height="8" as="geometry" />
        </mxCell>
        <mxCell id="55MPb7F4AEdg9HZ-oGf9-8" value="+ recibirAtaque(danio: int)&amp;nbsp;&lt;div&gt;+ agregarHabilidad(habilidad:Habilidad)&lt;/div&gt;&lt;div&gt;+ subirNivel()&lt;/div&gt;" style="text;strokeColor=none;fillColor=none;align=left;verticalAlign=top;spacingLeft=4;spacingRight=4;overflow=hidden;rotatable=0;points=[[0,0.5],[1,0.5]];portConstraint=eastwest;whiteSpace=wrap;html=1;" vertex="1" parent="55MPb7F4AEdg9HZ-oGf9-5">
          <mxGeometry y="188" width="250" height="80" as="geometry" />
        </mxCell>
        <mxCell id="55MPb7F4AEdg9HZ-oGf9-13" value="Pokedex" style="swimlane;fontStyle=1;align=center;verticalAlign=top;childLayout=stackLayout;horizontal=1;startSize=26;horizontalStack=0;resizeParent=1;resizeParentMax=0;resizeLast=0;collapsible=1;marginBottom=0;whiteSpace=wrap;html=1;" vertex="1" parent="1">
          <mxGeometry x="840" y="750" width="250" height="120" as="geometry">
            <mxRectangle x="840" y="750" width="90" height="30" as="alternateBounds" />
          </mxGeometry>
        </mxCell>
        <mxCell id="55MPb7F4AEdg9HZ-oGf9-14" value="- pokemons: list" style="text;strokeColor=none;fillColor=none;align=left;verticalAlign=top;spacingLeft=4;spacingRight=4;overflow=hidden;rotatable=0;points=[[0,0.5],[1,0.5]];portConstraint=eastwest;whiteSpace=wrap;html=1;" vertex="1" parent="55MPb7F4AEdg9HZ-oGf9-13">
          <mxGeometry y="26" width="250" height="34" as="geometry" />
        </mxCell>
        <mxCell id="55MPb7F4AEdg9HZ-oGf9-15" value="" style="line;strokeWidth=1;fillColor=none;align=left;verticalAlign=middle;spacingTop=-1;spacingLeft=3;spacingRight=3;rotatable=0;labelPosition=right;points=[];portConstraint=eastwest;strokeColor=inherit;" vertex="1" parent="55MPb7F4AEdg9HZ-oGf9-13">
          <mxGeometry y="60" width="250" height="8" as="geometry" />
        </mxCell>
        <mxCell id="55MPb7F4AEdg9HZ-oGf9-16" value="+ agregarPokemon(pokemon: Pokemon)&lt;div&gt;+ buscarPokemon(pokemon: Pokemon)&lt;/div&gt;" style="text;strokeColor=none;fillColor=none;align=left;verticalAlign=top;spacingLeft=4;spacingRight=4;overflow=hidden;rotatable=0;points=[[0,0.5],[1,0.5]];portConstraint=eastwest;whiteSpace=wrap;html=1;" vertex="1" parent="55MPb7F4AEdg9HZ-oGf9-13">
          <mxGeometry y="68" width="250" height="52" as="geometry" />
        </mxCell>
        <mxCell id="55MPb7F4AEdg9HZ-oGf9-17" value="Habilidad" style="swimlane;fontStyle=1;align=center;verticalAlign=top;childLayout=stackLayout;horizontal=1;startSize=26;horizontalStack=0;resizeParent=1;resizeParentMax=0;resizeLast=0;collapsible=1;marginBottom=0;whiteSpace=wrap;html=1;" vertex="1" parent="1">
          <mxGeometry x="865" y="140" width="200" height="110" as="geometry" />
        </mxCell>
        <mxCell id="55MPb7F4AEdg9HZ-oGf9-18" value="- nombre: str&lt;div&gt;- danio: int&lt;/div&gt;" style="text;strokeColor=none;fillColor=none;align=left;verticalAlign=top;spacingLeft=4;spacingRight=4;overflow=hidden;rotatable=0;points=[[0,0.5],[1,0.5]];portConstraint=eastwest;whiteSpace=wrap;html=1;" vertex="1" parent="55MPb7F4AEdg9HZ-oGf9-17">
          <mxGeometry y="26" width="200" height="44" as="geometry" />
        </mxCell>
        <mxCell id="55MPb7F4AEdg9HZ-oGf9-19" value="" style="line;strokeWidth=1;fillColor=none;align=left;verticalAlign=middle;spacingTop=-1;spacingLeft=3;spacingRight=3;rotatable=0;labelPosition=right;points=[];portConstraint=eastwest;strokeColor=inherit;" vertex="1" parent="55MPb7F4AEdg9HZ-oGf9-17">
          <mxGeometry y="70" width="200" height="8" as="geometry" />
        </mxCell>
        <mxCell id="55MPb7F4AEdg9HZ-oGf9-20" value="+ __str__ () -&amp;gt; str" style="text;strokeColor=none;fillColor=none;align=left;verticalAlign=top;spacingLeft=4;spacingRight=4;overflow=hidden;rotatable=0;points=[[0,0.5],[1,0.5]];portConstraint=eastwest;whiteSpace=wrap;html=1;" vertex="1" parent="55MPb7F4AEdg9HZ-oGf9-17">
          <mxGeometry y="78" width="200" height="32" as="geometry" />
        </mxCell>
        <mxCell id="55MPb7F4AEdg9HZ-oGf9-21" value="Medalla" style="swimlane;fontStyle=1;align=center;verticalAlign=top;childLayout=stackLayout;horizontal=1;startSize=26;horizontalStack=0;resizeParent=1;resizeParentMax=0;resizeLast=0;collapsible=1;marginBottom=0;whiteSpace=wrap;html=1;" vertex="1" parent="1">
          <mxGeometry x="375" y="750" width="230" height="104" as="geometry" />
        </mxCell>
        <mxCell id="55MPb7F4AEdg9HZ-oGf9-22" value="- nombre: str&lt;div&gt;- gimnasio: str&lt;/div&gt;" style="text;strokeColor=none;fillColor=none;align=left;verticalAlign=top;spacingLeft=4;spacingRight=4;overflow=hidden;rotatable=0;points=[[0,0.5],[1,0.5]];portConstraint=eastwest;whiteSpace=wrap;html=1;" vertex="1" parent="55MPb7F4AEdg9HZ-oGf9-21">
          <mxGeometry y="26" width="230" height="44" as="geometry" />
        </mxCell>
        <mxCell id="55MPb7F4AEdg9HZ-oGf9-23" value="" style="line;strokeWidth=1;fillColor=none;align=left;verticalAlign=middle;spacingTop=-1;spacingLeft=3;spacingRight=3;rotatable=0;labelPosition=right;points=[];portConstraint=eastwest;strokeColor=inherit;" vertex="1" parent="55MPb7F4AEdg9HZ-oGf9-21">
          <mxGeometry y="70" width="230" height="8" as="geometry" />
        </mxCell>
        <mxCell id="55MPb7F4AEdg9HZ-oGf9-24" value="+ __str__ () -&amp;gt; str" style="text;strokeColor=none;fillColor=none;align=left;verticalAlign=top;spacingLeft=4;spacingRight=4;overflow=hidden;rotatable=0;points=[[0,0.5],[1,0.5]];portConstraint=eastwest;whiteSpace=wrap;html=1;" vertex="1" parent="55MPb7F4AEdg9HZ-oGf9-21">
          <mxGeometry y="78" width="230" height="26" as="geometry" />
        </mxCell>
        <mxCell id="55MPb7F4AEdg9HZ-oGf9-25" value="Objeto" style="swimlane;fontStyle=1;align=center;verticalAlign=top;childLayout=stackLayout;horizontal=1;startSize=26;horizontalStack=0;resizeParent=1;resizeParentMax=0;resizeLast=0;collapsible=1;marginBottom=0;whiteSpace=wrap;html=1;" vertex="1" parent="1">
          <mxGeometry x="390" y="150" width="200" height="120" as="geometry" />
        </mxCell>
        <mxCell id="55MPb7F4AEdg9HZ-oGf9-26" value="- nombre: str&lt;div&gt;- danio: int&lt;/div&gt;&lt;div&gt;- efecto: str&lt;/div&gt;" style="text;strokeColor=none;fillColor=none;align=left;verticalAlign=top;spacingLeft=4;spacingRight=4;overflow=hidden;rotatable=0;points=[[0,0.5],[1,0.5]];portConstraint=eastwest;whiteSpace=wrap;html=1;" vertex="1" parent="55MPb7F4AEdg9HZ-oGf9-25">
          <mxGeometry y="26" width="200" height="54" as="geometry" />
        </mxCell>
        <mxCell id="55MPb7F4AEdg9HZ-oGf9-27" value="" style="line;strokeWidth=1;fillColor=none;align=left;verticalAlign=middle;spacingTop=-1;spacingLeft=3;spacingRight=3;rotatable=0;labelPosition=right;points=[];portConstraint=eastwest;strokeColor=inherit;" vertex="1" parent="55MPb7F4AEdg9HZ-oGf9-25">
          <mxGeometry y="80" width="200" height="8" as="geometry" />
        </mxCell>
        <mxCell id="55MPb7F4AEdg9HZ-oGf9-28" value="+ __str__ () -&amp;gt; str" style="text;strokeColor=none;fillColor=none;align=left;verticalAlign=top;spacingLeft=4;spacingRight=4;overflow=hidden;rotatable=0;points=[[0,0.5],[1,0.5]];portConstraint=eastwest;whiteSpace=wrap;html=1;" vertex="1" parent="55MPb7F4AEdg9HZ-oGf9-25">
          <mxGeometry y="88" width="200" height="32" as="geometry" />
        </mxCell>
        <mxCell id="55MPb7F4AEdg9HZ-oGf9-41" value="*" style="text;html=1;align=center;verticalAlign=middle;resizable=0;points=[];autosize=1;strokeColor=none;fillColor=none;" vertex="1" parent="1">
          <mxGeometry x="655" y="388" width="30" height="30" as="geometry" />
        </mxCell>
        <mxCell id="55MPb7F4AEdg9HZ-oGf9-42" value="1...5" style="text;html=1;align=center;verticalAlign=middle;resizable=0;points=[];autosize=1;strokeColor=none;fillColor=none;" vertex="1" parent="1">
          <mxGeometry x="790" y="388" width="50" height="30" as="geometry" />
        </mxCell>
        <mxCell id="55MPb7F4AEdg9HZ-oGf9-43" value="1...3" style="text;html=1;align=center;verticalAlign=middle;resizable=0;points=[];autosize=1;strokeColor=none;fillColor=none;" vertex="1" parent="1">
          <mxGeometry x="910" y="250" width="50" height="30" as="geometry" />
        </mxCell>
        <mxCell id="55MPb7F4AEdg9HZ-oGf9-44" value="1" style="text;html=1;align=center;verticalAlign=middle;resizable=0;points=[];autosize=1;strokeColor=none;fillColor=none;" vertex="1" parent="1">
          <mxGeometry x="920" y="310" width="30" height="30" as="geometry" />
        </mxCell>
        <mxCell id="55MPb7F4AEdg9HZ-oGf9-45" value="*" style="text;html=1;align=center;verticalAlign=middle;resizable=0;points=[];autosize=1;strokeColor=none;fillColor=none;" vertex="1" parent="1">
          <mxGeometry x="500" y="270" width="30" height="30" as="geometry" />
        </mxCell>
        <mxCell id="55MPb7F4AEdg9HZ-oGf9-46" value="*" style="text;html=1;align=center;verticalAlign=middle;resizable=0;points=[];autosize=1;strokeColor=none;fillColor=none;" vertex="1" parent="1">
          <mxGeometry x="500" y="320" width="30" height="30" as="geometry" />
        </mxCell>
        <mxCell id="55MPb7F4AEdg9HZ-oGf9-48" value="*" style="text;html=1;align=center;verticalAlign=middle;resizable=0;points=[];autosize=1;strokeColor=none;fillColor=none;" vertex="1" parent="1">
          <mxGeometry x="490" y="720" width="30" height="30" as="geometry" />
        </mxCell>
        <mxCell id="55MPb7F4AEdg9HZ-oGf9-49" value="*" style="text;html=1;align=center;verticalAlign=middle;resizable=0;points=[];autosize=1;strokeColor=none;fillColor=none;" vertex="1" parent="1">
          <mxGeometry x="480" y="660" width="30" height="30" as="geometry" />
        </mxCell>
        <mxCell id="55MPb7F4AEdg9HZ-oGf9-51" value="" style="endArrow=open;endFill=1;endSize=12;html=1;rounded=0;" edge="1" parent="1">
          <mxGeometry width="160" relative="1" as="geometry">
            <mxPoint x="480" y="660" as="sourcePoint" />
            <mxPoint x="480" y="750" as="targetPoint" />
            <Array as="points" />
          </mxGeometry>
        </mxCell>
        <mxCell id="55MPb7F4AEdg9HZ-oGf9-53" value="" style="endArrow=open;endFill=1;endSize=12;html=1;rounded=0;entryX=-0.017;entryY=0.485;entryDx=0;entryDy=0;entryPerimeter=0;" edge="1" parent="1" target="55MPb7F4AEdg9HZ-oGf9-6">
          <mxGeometry width="160" relative="1" as="geometry">
            <mxPoint x="650" y="440" as="sourcePoint" />
            <mxPoint x="810" y="440" as="targetPoint" />
          </mxGeometry>
        </mxCell>
        <mxCell id="55MPb7F4AEdg9HZ-oGf9-56" value="" style="endArrow=open;endFill=1;endSize=12;html=1;rounded=0;entryX=-0.006;entryY=0.379;entryDx=0;entryDy=0;entryPerimeter=0;exitX=0.991;exitY=-0.037;exitDx=0;exitDy=0;exitPerimeter=0;" edge="1" parent="1" source="55MPb7F4AEdg9HZ-oGf9-4" target="55MPb7F4AEdg9HZ-oGf9-14">
          <mxGeometry width="160" relative="1" as="geometry">
            <mxPoint x="650" y="530" as="sourcePoint" />
            <mxPoint x="780" y="790" as="targetPoint" />
            <Array as="points">
              <mxPoint x="730" y="534" />
              <mxPoint x="730" y="790" />
            </Array>
          </mxGeometry>
        </mxCell>
        <mxCell id="55MPb7F4AEdg9HZ-oGf9-57" value="" style="endArrow=open;endFill=1;endSize=12;html=1;rounded=0;exitX=0.347;exitY=-0.026;exitDx=0;exitDy=0;exitPerimeter=0;entryX=0.347;entryY=1.028;entryDx=0;entryDy=0;entryPerimeter=0;" edge="1" parent="1">
          <mxGeometry width="160" relative="1" as="geometry">
            <mxPoint x="962.7499999999998" y="746.8800000000001" as="sourcePoint" />
            <mxPoint x="962.7499999999998" y="610.2400000000001" as="targetPoint" />
          </mxGeometry>
        </mxCell>
        <mxCell id="55MPb7F4AEdg9HZ-oGf9-58" value="*" style="text;html=1;align=center;verticalAlign=middle;resizable=0;points=[];autosize=1;strokeColor=none;fillColor=none;" vertex="1" parent="1">
          <mxGeometry x="980" y="608" width="30" height="30" as="geometry" />
        </mxCell>
        <mxCell id="55MPb7F4AEdg9HZ-oGf9-59" value="*" style="text;html=1;align=center;verticalAlign=middle;resizable=0;points=[];autosize=1;strokeColor=none;fillColor=none;" vertex="1" parent="1">
          <mxGeometry x="980" y="720" width="30" height="30" as="geometry" />
        </mxCell>
        <mxCell id="55MPb7F4AEdg9HZ-oGf9-60" value="1" style="text;html=1;align=center;verticalAlign=middle;resizable=0;points=[];autosize=1;strokeColor=none;fillColor=none;" vertex="1" parent="1">
          <mxGeometry x="800" y="750" width="30" height="30" as="geometry" />
        </mxCell>
        <mxCell id="55MPb7F4AEdg9HZ-oGf9-61" value="*" style="text;html=1;align=center;verticalAlign=middle;resizable=0;points=[];autosize=1;strokeColor=none;fillColor=none;" vertex="1" parent="1">
          <mxGeometry x="655" y="540" width="30" height="30" as="geometry" />
        </mxCell>
        <mxCell id="55MPb7F4AEdg9HZ-oGf9-62" value="" style="endArrow=open;endFill=1;endSize=12;html=1;rounded=0;exitX=0.486;exitY=0;exitDx=0;exitDy=0;exitPerimeter=0;entryX=0.578;entryY=1.052;entryDx=0;entryDy=0;entryPerimeter=0;" edge="1" parent="1" source="55MPb7F4AEdg9HZ-oGf9-5">
          <mxGeometry width="160" relative="1" as="geometry">
            <mxPoint x="961.75" y="335.712" as="sourcePoint" />
            <mxPoint x="961.5999999999999" y="251.664" as="targetPoint" />
          </mxGeometry>
        </mxCell>
        <mxCell id="55MPb7F4AEdg9HZ-oGf9-63" value="" style="endArrow=open;endFill=1;endSize=12;html=1;rounded=0;entryX=0.45;entryY=1;entryDx=0;entryDy=0;entryPerimeter=0;exitX=0.469;exitY=-0.01;exitDx=0;exitDy=0;exitPerimeter=0;" edge="1" parent="1">
          <mxGeometry width="160" relative="1" as="geometry">
            <mxPoint x="491.08000000000015" y="347.5" as="sourcePoint" />
            <mxPoint x="491.0000000000002" y="270" as="targetPoint" />
          </mxGeometry>
        </mxCell>
        <mxCell id="55MPb7F4AEdg9HZ-oGf9-65" value="" style="endArrow=open;endSize=12;dashed=1;html=1;rounded=0;exitX=0;exitY=0.701;exitDx=0;exitDy=0;exitPerimeter=0;" edge="1" parent="1" source="55MPb7F4AEdg9HZ-oGf9-2">
          <mxGeometry width="160" relative="1" as="geometry">
            <mxPoint x="100" y="470" as="sourcePoint" />
            <mxPoint x="154" y="440" as="targetPoint" />
            <Array as="points">
              <mxPoint x="154" y="484" />
            </Array>
          </mxGeometry>
        </mxCell>
        <mxCell id="55MPb7F4AEdg9HZ-oGf9-66" value="&lt;span style=&quot;color: rgb(0, 0, 0); font-family: Helvetica; font-size: 12px; font-style: normal; font-variant-ligatures: normal; font-variant-caps: normal; font-weight: 400; letter-spacing: normal; orphans: 2; text-align: left; text-indent: 0px; text-transform: none; widows: 2; word-spacing: 0px; -webkit-text-stroke-width: 0px; white-space: normal; background-color: rgb(251, 251, 251); text-decoration-thickness: initial; text-decoration-style: initial; text-decoration-color: initial; display: inline !important; float: none;&quot;&gt;&amp;nbsp;calcularProbabilidadCaptura(nivel) -&amp;gt; bool&lt;/span&gt;" style="text;whiteSpace=wrap;html=1;" vertex="1" parent="1">
          <mxGeometry x="40" y="418" width="270" height="40" as="geometry" />
        </mxCell>
      </root>
    </mxGraphModel>
  </diagram>
</mxfile>
